# xmcd
# 
# Track frame offsets:
#     150
#     31447
#     63337
#     90247
#     132770
#     159337
#     200925
#     224437
#     258337
# 
# Disc length: 3796
# 
# Revision: 1
# Processed by: cddbd v1.5.2PL0 Copyright (c) Steve Scherf et al.
# Submitted via: BonkEnc v1.0.8
# 
DISCID=7b0ed209
DTITLE=Eddie Henderson - Manhattan In Blue
DYEAR=1994
DGENRE=Jazz
TTITLE0=Surrey With The Fringe On Top
TTITLE1=I Remember Clifford
TTITLE2=Jinrikisya
TTITLE3=Ololoqui Valley
TTITLE4=When You Wish Upon A Star
TTITLE5=Phantoms
TTITLE6=On Green Dolphin Street
TTITLE7=If One Could Only See
TTITLE8=Little B's Poem
EXTD=YEAR: 1994
EXTT0=
EXTT1=
EXTT2=
EXTT3=
EXTT4=
EXTT5=
EXTT6=
EXTT7=
EXTT8=
PLAYORDER=
